<?xml version="1.0" encoding="UTF-8" standalone="no"?>
<svg xmlns="http://www.w3.org/2000/svg" version="1.1" xmlns:xlink="http://www.w3.org/1999/xlink" xmlns:svgjs="http://svgjs.com/svgjs" width="512" height="512" x="0" y="0" viewBox="0 0 152 152" style="enable-background:new 0 0 512 512" xml:space="preserve" class=""><g><linearGradient id="linear-gradient" gradientUnits="userSpaceOnUse" x1="62.46" x2="83.18" y1="52.23" y2="72.96"><stop offset="0" stop-color="#186eb3"></stop><stop offset="1" stop-color="#186eb3" stop-opacity="0"></stop></linearGradient><linearGradient id="linear-gradient-2" x1="70.97" x2="144.39" xlink:href="#linear-gradient" y1="79.15" y2="152.58"></linearGradient><g id="Layer_2" data-name="Layer 2"><g id="Color"><g id="_16.P" data-name="16.P"><rect id="Background" fill="#249df1" height="152" rx="12" width="152" data-original="#2196f3" class=""></rect><g id="Shadow"><path d="m76.44 74h-12.64v-23.11h12.86a10.68 10.68 0 0 1 8.24 3.41c2 2.23 3 5.22 3 9q0 5.11-2.94 7.91c-1.96 1.79-4.78 2.79-8.52 2.79z" fill="url(#linear-gradient)" data-original="url(#linear-gradient)"></path><path d="m152 96.9v43.1a12 12 0 0 1 -12 12h-59.48l-36-36h19.28v-27.14h12.31q14.61 0 23-7t8.38-18.71a26.3 26.3 0 0 0 -3.88-14.15c-.32-.51-.65-1-1-1.48z" fill="url(#linear-gradient-2)" data-original="url(#linear-gradient-2)"></path></g><path id="Icon" d="m63.8 88.86v27.14h-19.28v-80h31.92a37.24 37.24 0 0 1 16.24 3.38 25.5 25.5 0 0 1 10.93 9.62 26.3 26.3 0 0 1 3.87 14.15q0 11.72-8.38 18.71t-23 7zm0-14.86h12.64c3.74 0 6.56-1 8.56-2.84s2.94-4.5 2.94-7.91c0-3.73-1-6.72-3-9a10.68 10.68 0 0 0 -8.24-3.41h-12.9z" fill="#ffffff" data-original="#ffffff"></path></g></g></g></g></svg>